<?xml version="1.0" encoding="utf-8"?>
<!-- Generator: Adobe Illustrator 21.0.2, SVG Export Plug-In . SVG Version: 6.00 Build 0)  -->
<svg version="1.1"
	 id="Layer_1" xmlns:cc="http://creativecommons.org/ns#" xmlns:dc="http://purl.org/dc/elements/1.1/" xmlns:inkscape="http://www.inkscape.org/namespaces/inkscape" xmlns:rdf="http://www.w3.org/1999/02/22-rdf-syntax-ns#" xmlns:sodipodi="http://sodipodi.sourceforge.net/DTD/sodipodi-0.dtd" xmlns:svg="http://www.w3.org/2000/svg"
	 xmlns="http://www.w3.org/2000/svg" xmlns:xlink="http://www.w3.org/1999/xlink" x="0px" y="0px" viewBox="0 0 100 125"
	 style="enable-background:new 0 0 100 125;" xml:space="preserve">
<style type="text/css">
	.st0{fill:#231F20;}
</style>
<g>
	<g>
		<g>
			<path class="st0" d="M44.7,88.6c-0.1-0.7-0.7-1.1-1.2-1.1l-32.9,0.9l-0.2,1.4l-2,14.8c-0.1,0.9,0.5,1.7,1.2,1.7H47
				c0.8,0,1.4-0.9,1.2-1.9L44.7,88.6z M43.4,103H12.9c-0.8,0-1.3-0.8-1.2-1.7l1.1-8.3c0.1-0.7,0.6-1.2,1.2-1.3l27.4-0.8
				c0.6,0,1.1,0.4,1.2,1.1l2,9C44.8,102,44.2,103,43.4,103z"/>
			<path class="st0" d="M39.3,35.4l22.6,1.5c0.6,0,1.2-0.5,1.3-1.3l1.7-15.5c0.1-0.9-0.5-1.7-1.2-1.7l-10.1,0.1
				c-0.3,0-0.6,0.1-0.8,0.4l-5.3,5.6c-0.2,0.2-0.5,0.4-0.8,0.4l-7.5,0.3c-0.7,0-1.2,0.7-1.2,1.5l0,8.6L39.3,35.4z M42,28.5l5.8-0.2
				c0.3,0,0.6-0.1,0.8-0.4l5.3-5.6c0.2-0.2,0.5-0.4,0.8-0.4l5.8-0.1c0.8,0,1.3,0.8,1.2,1.7l-0.9,8.5c-0.1,0.8-0.6,1.3-1.3,1.3
				l-17.6-1.2c-0.7,0-1.2-0.7-1.2-1.5l0-0.8C40.8,29.2,41.3,28.5,42,28.5z"/>
			<path class="st0" d="M19.9,81.6l21.2-0.1c0.7,0,1.3-0.7,1.2-1.6l-0.5-16.8c0-1-0.8-1.6-1.5-1.4l-20.7,6l-0.1,1.2l-1,11
				C18.6,80.8,19.2,81.6,19.9,81.6z M22.2,71.5c0.1-0.6,0.4-1.2,0.9-1.3L37.7,66c0.8-0.2,1.5,0.5,1.5,1.4l0.2,9.2
				c0,0.8-0.5,1.5-1.2,1.6L23,78.2c-0.7,0-1.3-0.8-1.2-1.7L22.2,71.5z"/>
			<path class="st0" d="M27.6,62.5l19.1-9.6c0.1-0.1,0.3-0.1,0.4-0.1l18-1.3c0.6,0,1-0.5,1.1-1.2l1.5-8.3c0.2-0.9-0.4-1.8-1.2-1.8
				l-26.3,0.4c-0.1,0-0.2,0-0.3,0.1l-14.3,5.1c-0.6,0.2-0.9,0.9-0.9,1.6l1.2,16.1L27.6,62.5z M28.5,48.2L40.3,44
				c0.1,0,0.2-0.1,0.3-0.1L63,43.7c0.8,0,1.4,0.9,1.2,1.8l-0.3,1.6c-0.1,0.7-0.6,1.1-1.1,1.2l-16.4,1.2c-0.1,0-0.3,0-0.4,0.1
				l-16.2,8.2c-0.8,0.4-1.6-0.2-1.7-1.3l-0.5-6.7C27.6,49.1,28,48.4,28.5,48.2z"/>
			<path class="st0" d="M93.1,100l-8.2-14.5c-0.2-0.4-0.7-0.7-1.1-0.6L50,87l0,1.6l0.2,10.3c0,0.8,0.6,1.5,1.2,1.5h13.7
				c0.1,0,0.3,0,0.4,0.1l14.3,6.4c0.3,0.1,0.5,0.1,0.8,0l11.8-4.5C93.3,102,93.6,100.9,93.1,100z M88.1,100.5l-7.3,2.8
				c-0.3,0.1-0.5,0.1-0.8,0l-13.9-6.2C66,97,65.8,97,65.7,97H54.2c-0.7,0-1.2-0.6-1.2-1.5l-0.1-3.9c0-0.8,0.5-1.5,1.2-1.5l28.3-1.8
				c0.4,0,0.8,0.2,1.1,0.6l5.3,9.3C89.2,99,88.9,100.2,88.1,100.5z"/>
			<path class="st0" d="M56.7,68.1l-13.4,1.1l0,1.6l0.1,8.5c0,0.8,0.6,1.5,1.3,1.5l15.1-0.7c0.9,0,1.4-1.1,1.1-2.1l-3-9
				C57.8,68.4,57.3,68.1,56.7,68.1z M55.8,76.9l-8.3,0.4c-0.7,0-1.3-0.6-1.3-1.5l0-2.1c0-0.8,0.5-1.5,1.2-1.5l7.6-0.6
				c0.5,0,1,0.3,1.2,0.9l0.8,2.3C57.2,75.8,56.7,76.9,55.8,76.9z"/>
			<path class="st0" d="M56.5,57.5l6.9,20c0.2,0.5,0.6,0.9,1.1,0.9l7.9,0.7c0.8,0.1,1.4-0.7,1.3-1.6l-1-17.5c0-0.7-0.4-1.2-1-1.4
				l-16.2-4L56.5,57.5z M62.3,59.7l6.7,1.7c0.5,0.1,1,0.7,1,1.4l0.6,11.1c0.1,0.9-0.6,1.7-1.3,1.6l-3-0.3c-0.5,0-0.9-0.4-1.1-0.9
				L61,61.7C60.6,60.6,61.4,59.5,62.3,59.7z"/>
		</g>
	</g>
</g>
</svg>
