<?xml version="1.0" standalone="no"?>
<!DOCTYPE svg PUBLIC "-//W3C//DTD SVG 20010904//EN"
 "http://www.w3.org/TR/2001/REC-SVG-20010904/DTD/svg10.dtd">
<svg version="1.0" xmlns="http://www.w3.org/2000/svg"
 width="1000.000000pt" height="1000.000000pt" viewBox="0 0 1000.000000 1000.000000"
 preserveAspectRatio="xMidYMid meet">
<metadata>
Created by potrace 1.11, written by Peter Selinger 2001-2013
</metadata>
<g transform="translate(0.000000,1000.000000) scale(0.100000,-0.100000)"
fill="#000000" stroke="none">
<path d="M5254 8517 c-12 -7 -119 -115 -239 -242 -119 -126 -231 -238 -248
-247 -26 -13 -87 -18 -341 -27 -333 -12 -337 -13 -373 -68 -16 -24 -18 -63
-21 -386 -2 -198 1 -364 5 -368 10 -10 174 -22 1198 -89 171 -12 404 -27 518
-35 186 -14 212 -13 241 0 48 23 65 61 76 171 6 55 24 218 40 364 88 795 91
830 80 866 -6 18 -23 43 -37 54 -25 19 -39 20 -452 20 -315 -1 -432 -4 -447
-13z m641 -291 c13 -13 27 -37 31 -53 7 -25 -8 -191 -56 -611 -25 -222 -31
-227 -233 -212 -67 5 -228 16 -357 25 -129 8 -329 22 -445 30 -115 8 -276 19
-357 25 -81 5 -156 14 -167 19 -43 23 -66 144 -37 199 33 63 32 63 303 73 136
5 258 11 270 14 12 3 126 115 254 250 128 135 242 248 253 250 34 8 120 11
324 13 192 2 193 2 217 -22z"/>
<path d="M5900 6784 c-41 -2 -437 -8 -880 -14 l-805 -12 -365 -130 c-201 -71
-450 -160 -555 -198 -104 -37 -207 -73 -227 -79 -45 -15 -85 -60 -94 -106 -3
-19 1 -123 10 -232 9 -109 25 -326 37 -483 32 -439 45 -600 52 -606 3 -4 41
14 84 38 43 25 419 217 835 426 l757 381 158 11 c87 6 244 17 348 25 105 8
323 23 485 35 423 29 499 37 516 51 28 23 43 66 63 180 12 63 40 224 65 358
48 270 48 291 -5 335 l-31 26 -186 -2 c-103 -1 -221 -3 -262 -4z m179 -299
c38 -19 55 -64 48 -128 -10 -91 -28 -157 -51 -184 -22 -26 -28 -27 -242 -44
-120 -9 -354 -27 -519 -39 -165 -12 -374 -27 -465 -35 l-165 -13 -485 -246
c-868 -441 -842 -428 -873 -421 -15 4 -37 20 -48 37 -18 25 -23 60 -40 266
-25 316 -26 370 -5 409 23 46 -54 15 726 293 l285 102 665 7 c1123 13 1138 13
1169 -4z"/>
<path d="M5440 5627 c0 -9 13 -53 29 -99 34 -96 86 -248 281 -813 141 -409
217 -628 284 -822 41 -120 57 -147 94 -161 26 -10 381 -44 598 -58 113 -8 135
-1 160 48 18 34 16 119 -6 468 -5 80 -14 233 -20 340 -25 482 -42 705 -56 732
-8 15 -27 34 -43 43 -16 8 -193 55 -393 104 -816 201 -898 222 -913 227 -9 4
-15 0 -15 -9z m807 -476 c148 -37 279 -73 291 -80 47 -25 54 -52 63 -234 5
-94 16 -287 24 -427 21 -358 21 -372 -11 -409 -23 -28 -31 -31 -82 -31 -108 1
-260 25 -281 44 -23 21 -371 1052 -371 1099 0 53 40 106 81 107 9 0 137 -31
286 -69z"/>
<path d="M4199 5066 c-2 -2 -107 -34 -234 -71 -126 -36 -300 -87 -385 -111
-85 -25 -223 -65 -307 -90 -83 -24 -236 -68 -340 -98 -328 -95 -367 -106 -369
-109 -1 -1 -9 -85 -18 -187 -23 -255 -45 -500 -61 -659 -15 -155 -9 -189 40
-238 l33 -33 866 0 c955 0 919 -2 952 62 16 30 16 58 5 388 -6 195 -16 514
-22 709 -11 375 -13 392 -61 425 -20 14 -88 22 -99 12z m-99 -382 c23 -23 25
-32 31 -171 13 -262 12 -679 -1 -705 -32 -61 6 -58 -686 -58 l-631 0 -27 27
c-14 14 -29 38 -33 52 -3 14 2 122 12 241 20 248 32 291 86 308 44 15 1115
322 1154 332 39 10 65 3 95 -26z"/>
<path d="M5420 4549 c-83 -8 -296 -25 -655 -54 -99 -8 -208 -17 -243 -21 l-64
-7 4 -421 c3 -379 5 -424 21 -453 31 -57 62 -66 206 -59 500 25 737 36 876 41
272 10 291 16 315 104 10 40 5 58 -116 424 -70 210 -133 394 -140 408 -14 27
-61 50 -98 48 -12 -1 -59 -5 -106 -10z m48 -312 c17 -17 92 -231 92 -261 0
-11 -9 -40 -19 -63 -16 -34 -26 -44 -58 -52 -21 -5 -186 -17 -366 -26 -366
-17 -369 -17 -399 45 -21 40 -25 200 -8 262 19 68 32 72 286 92 126 10 267 21
314 25 89 7 135 1 158 -22z"/>
<path d="M7360 3194 c-107 -7 -343 -23 -525 -34 -181 -11 -436 -27 -565 -35
-332 -21 -829 -52 -1069 -66 l-204 -13 6 -491 c6 -535 5 -528 63 -574 26 -21
34 -21 593 -21 l566 0 582 -260 c320 -143 595 -260 610 -260 16 0 94 25 173
56 80 30 294 112 475 181 182 69 342 134 356 144 15 10 32 32 39 49 28 68 20
85 -330 705 -183 325 -343 600 -357 613 -22 20 -33 22 -121 21 -53 -1 -185 -8
-292 -15z m278 -278 c20 -11 84 -114 250 -404 301 -529 304 -490 -48 -626
-377 -145 -385 -148 -420 -143 -19 3 -288 118 -596 256 l-562 251 -477 0
c-286 0 -484 4 -494 10 -37 19 -44 64 -45 271 l-1 198 27 27 c31 31 -138 18
1468 120 135 8 362 24 505 33 333 23 360 24 393 7z"/>
<path d="M3825 2989 c-126 -4 -507 -15 -845 -24 -727 -19 -1130 -32 -1135 -37
-4 -3 -34 -221 -96 -683 -11 -82 -27 -197 -35 -255 -41 -302 -45 -349 -41
-394 4 -40 11 -55 36 -78 l31 -28 1526 0 1526 0 34 34 c30 30 34 40 34 85 0
28 -40 232 -89 453 -50 222 -114 511 -143 643 -46 210 -56 243 -79 268 l-27
27 -234 -2 c-128 0 -336 -5 -463 -9z m543 -289 c26 -25 24 -17 121 -453 86
-389 88 -410 36 -454 l-26 -23 -1250 0 -1250 0 -24 24 c-13 13 -27 36 -31 50
-3 14 8 132 25 263 69 520 67 510 119 537 20 10 121 16 412 25 212 6 545 16
740 22 1145 35 1100 35 1128 9z"/>
</g>
</svg>
